<svg width="48" height="16" viewBox="0 0 48 16" fill="none" xmlns="http://www.w3.org/2000/svg">
<path fill-rule="evenodd" clip-rule="evenodd" d="M34.146 10.404C34.118 13.367 31.462 15.279 27.375 15.279C25.632 15.261 23.953 14.918 23.043 14.519L23.59 11.326L24.091 11.554C25.368 12.086 26.195 12.301 27.752 12.301C28.869 12.301 30.065 11.863 30.077 10.908C30.084 10.283 29.576 9.83795 28.061 9.13795C26.585 8.45495 24.631 7.31096 24.656 5.26196C24.677 2.48896 27.385 0.553955 31.227 0.553955C32.733 0.553955 33.94 0.863955 34.71 1.15296L34.184 4.24496L33.833 4.07996C33.117 3.79195 32.195 3.51396 30.923 3.53396C29.401 3.53396 28.695 4.16795 28.695 4.76095C28.687 5.42896 29.519 5.86896 30.879 6.53096C33.126 7.54596 34.163 8.78296 34.146 10.404ZM41.684 0.813955H44.688L47.834 15.072H44.227C44.227 15.072 43.869 13.433 43.753 12.935C43.454 12.935 42.202 12.9333 41.0233 12.9317C39.9749 12.9303 38.9844 12.929 38.774 12.929C38.623 13.314 37.957 15.072 37.957 15.072H33.874L39.647 1.99796C40.057 1.06796 40.751 0.813955 41.684 0.813955ZM41.442 6.02295C41.442 6.02295 40.213 9.19096 39.893 10.01H43.123L42.222 5.89095L41.96 4.66095C41.8618 4.92337 41.7308 5.26387 41.6251 5.53892L41.6247 5.53979L41.6245 5.54029C41.5141 5.82742 41.4313 6.04287 41.442 6.02295ZM0.05 0.675955L0 0.961955C4.691 2.09896 7.795 4.84196 9.083 8.13896L7.772 1.83496C7.546 0.965955 6.891 0.706955 6.078 0.675955H0.05ZM17.581 0.811955L11.458 15.051L7.344 15.058L3.862 3.16095C6.365 4.76296 8.497 7.30495 9.248 9.07495L9.654 10.544L13.462 0.814955L17.581 0.811955ZM23.043 0.799955H19.153L16.722 15.066H20.61L23.043 0.799955Z" fill="white"/>
</svg>
