<svg width="81" height="17" viewBox="0 0 81 17" fill="none" xmlns="http://www.w3.org/2000/svg">
<path d="M0.35 0.399999H9.494V13H7.82V1.984H2.024V13H0.35V0.399999ZM17.0037 3.766C18.2637 3.766 19.3377 4.228 20.2257 5.152C21.1137 6.076 21.5577 7.192 21.5577 8.5C21.5577 9.82 21.1137 10.942 20.2257 11.866C19.3497 12.778 18.2757 13.234 17.0037 13.234C15.5157 13.234 14.3817 12.64 13.6017 11.452V16.6H12.0357V4H13.6017V5.548C14.3817 4.36 15.5157 3.766 17.0037 3.766ZM16.8057 11.722C17.7057 11.722 18.4617 11.416 19.0737 10.804C19.6857 10.168 19.9917 9.4 19.9917 8.5C19.9917 7.588 19.6857 6.826 19.0737 6.214C18.4617 5.59 17.7057 5.278 16.8057 5.278C15.8937 5.278 15.1317 5.59 14.5197 6.214C13.9077 6.826 13.6017 7.588 13.6017 8.5C13.6017 9.4 13.9077 10.168 14.5197 10.804C15.1317 11.416 15.8937 11.722 16.8057 11.722ZM24.9743 10.318L29.9603 4H31.2203V13H29.6723V6.682L24.6863 13H23.4263V4H24.9743V10.318ZM39.598 8.374C40.522 8.758 40.984 9.454 40.984 10.462C40.984 11.23 40.732 11.848 40.228 12.316C39.724 12.772 39.016 13 38.104 13H33.604V4H37.744C38.632 4 39.322 4.222 39.814 4.666C40.318 5.11 40.57 5.704 40.57 6.448C40.57 7.312 40.246 7.954 39.598 8.374ZM37.672 5.404H35.134V7.762H37.672C38.584 7.762 39.04 7.36 39.04 6.556C39.04 5.788 38.584 5.404 37.672 5.404ZM35.134 11.578H38.014C38.47 11.578 38.818 11.47 39.058 11.254C39.31 11.038 39.436 10.732 39.436 10.336C39.436 9.964 39.31 9.676 39.058 9.472C38.818 9.256 38.47 9.148 38.014 9.148H35.134V11.578ZM50.1263 5.548V4H51.6923V13H50.1263V11.452C49.3583 12.64 48.2243 13.234 46.7243 13.234C45.4523 13.234 44.3783 12.778 43.5023 11.866C42.6143 10.942 42.1703 9.82 42.1703 8.5C42.1703 7.192 42.6143 6.076 43.5023 5.152C44.3903 4.228 45.4643 3.766 46.7243 3.766C48.2243 3.766 49.3583 4.36 50.1263 5.548ZM46.9223 11.722C47.8343 11.722 48.5963 11.416 49.2083 10.804C49.8203 10.168 50.1263 9.4 50.1263 8.5C50.1263 7.588 49.8203 6.826 49.2083 6.214C48.5963 5.59 47.8343 5.278 46.9223 5.278C46.0223 5.278 45.2663 5.59 44.6543 6.214C44.0423 6.826 43.7363 7.588 43.7363 8.5C43.7363 9.4 44.0423 10.168 44.6543 10.804C45.2663 11.416 46.0223 11.722 46.9223 11.722ZM53.057 4H60.761V5.512H57.701V13H56.135V5.512H53.057V4ZM69.7293 13H61.5933V11.632L66.0393 7.096C67.2273 5.908 67.8213 4.888 67.8213 4.036C67.8213 3.34 67.6053 2.794 67.1733 2.398C66.7533 1.99 66.2253 1.786 65.5893 1.786C64.4013 1.786 63.5373 2.35 62.9973 3.478L61.5933 2.65C61.9773 1.846 62.5173 1.234 63.2133 0.813999C63.9093 0.381999 64.6953 0.165999 65.5713 0.165999C66.6393 0.165999 67.5573 0.513999 68.3253 1.21C69.1053 1.918 69.4953 2.854 69.4953 4.018C69.4953 5.29 68.7453 6.676 67.2453 8.176L64.0233 11.38H69.7293V13ZM78.6531 9.04H80.1831V10.606H78.6531V13H76.9791V10.606H70.5531V9.04L75.0711 0.399999H76.8711L72.3531 9.04H76.9791V5.476H78.6531V9.04Z" fill="white"/>
</svg>
